<svg viewBox="0 0 512 512" version="1.1" xmlns="http://www.w3.org/2000/svg">
  <path
    d="m 255.99213,0 c 48.03194,0 96.13904,18.312966 132.86266,55.02076 58.95328,58.93934 73.57903,147.89047 36.25503,215.00606 -4.68118,8.4149 -10.3171,17.81205 -16.72701,27.96842 -5.76351,9.13217 -12.10533,18.80465 -18.86677,28.834 -6.08529,9.02642 -12.49178,18.31325 -19.10623,27.73556 -11.91057,16.96664 -24.44294,34.29499 -36.90092,51.1982 -27.51479,37.33256 -20.47067,30.39541 -77.51458,102.02951 C 198.9577,436.15892 206.00558,443.10453 178.48853,405.7652 166.03175,388.86194 153.4994,371.53151 141.58979,354.5648 134.97588,345.14246 128.56846,335.85571 122.48357,326.82924 115.72256,316.79983 109.3823,307.12753 103.619,297.99524 97.209328,287.83877 91.573931,278.44353 86.894178,270.03121 49.567639,202.91374 64.192347,113.95786 123.12725,55.022958 159.84868,18.316351 207.97912,0 255.99213,0 Z"
    style="fill: #ffffff; fill-opacity: 1"
  />
  <path
    class="marker"
    transform="matrix(0.9885514,0,0,0.9885514,2.931498,0.91904455)"
    d="m 255.99137,-0.92968818 c 48.58821,0 97.25245,18.52505218 134.40137,55.65796618 59.63603,59.621932 74.43116,149.603212 36.67491,217.496082 -4.73539,8.51236 -10.43659,18.01834 -16.92073,28.29233 -5.83026,9.23793 -12.24552,19.02243 -19.08527,29.16793 -6.15576,9.13096 -12.63645,18.52534 -19.3275,28.05677 -12.04851,17.16314 -24.72602,34.69217 -37.32828,51.79114 -27.83344,37.76491 -20.70774,30.74742 -78.41229,103.21113 -57.69716,-72.46319 -50.56766,-65.43714 -78.40339,-103.20891 -12.60104,-17.09901 -25.27853,-34.63015 -37.32607,-51.79336 -6.69051,-9.53146 -13.17213,-18.92576 -19.32749,-28.05677 -6.83931,-10.14556 -13.253,-19.92988 -19.08305,-29.16793 C 95.369679,290.2426 89.669018,280.73855 84.935068,272.2288 47.176243,204.33403 61.970322,114.34794 121.58776,54.730501 158.73447,17.598788 207.42232,-0.92968818 255.99137,-0.92968818 Z m 0,32.11250218 c -87.3466,0 -157.924615,70.589886 -157.924615,157.977956 0,87.33182 70.578155,157.90682 157.924615,157.90682 87.36004,0 157.94238,-70.57485 157.94238,-157.90682 0,-87.38823 -70.58221,-157.977956 -157.94238,-157.977956 z M -2.9654482,-0.92968818"
  />
  <path
    class="marker"
    style="fill: #b71a3f"
    d="m 222.52208,104.89842 -4.38028,13.45375 c 5.76884,0 19.74384,-2.35929 20.59798,6.25756 0.3642,3.67437 -2.59844,5.77925 -4.95409,8.13481 -5.16374,5.16373 -10.16477,10.47765 -15.33101,15.64389 -21.53286,21.53286 -42.47721,43.68084 -64.16429,65.05164 -6.18175,6.09142 -14.84402,-0.44241 -20.76285,3.54991 -2.42658,1.63666 -3.87271,9.03747 -4.55588,11.808 h 50.99907 c 3.94663,0 15.06286,1.95299 18.19259,-0.39423 2.40164,-1.80091 3.71573,-8.9702 4.64747,-11.808 -5.23069,0 -16.74709,2.04653 -17.71795,-5.63179 -0.62982,-4.98226 9.34003,-11.99636 12.44158,-15.33101 13.52633,-14.54287 27.8383,-28.50659 41.88307,-42.55136 -6.28352,25.48326 -15.92704,50.76377 -24.09159,75.71639 6.3899,0 16.90197,2.04372 22.84008,-0.25718 2.7577,-1.06848 4.92969,-4.54267 6.90772,-6.62613 4.50605,-4.74635 9.11568,-9.45297 13.7422,-14.07949 17.88659,-17.8869 35.16401,-36.38517 52.87633,-54.44071 -2.5609,11.82552 -7.20933,23.45956 -10.72013,35.04229 -1.89541,6.25318 -3.11188,14.6092 -6.82793,20.02418 -2.07657,3.02552 -5.50446,7.38828 -9.35942,8.03563 -2.68606,0.45117 -7.83008,-1.12073 -10.07967,0.49341 -2.38256,1.70956 -3.93381,9.01432 -4.62558,11.808 h 50.68618 c 5.0464,0 15.39015,2.01055 19.86178,-0.25718 2.4536,-1.244 4.21634,-9.36349 4.85555,-11.94505 -5.12117,0 -13.03292,1.51433 -14.75469,-5.00604 -1.7058,-6.45998 3.82494,-15.75902 5.63587,-21.90144 4.58335,-15.54751 10.04182,-30.92764 15.16769,-46.30589 2.34847,-7.04475 3.73295,-16.05216 9.01432,-21.57508 4.5799,-4.78936 11.76358,-3.45513 17.78898,-3.45513 l 4.69316,-13.45375 h -34.72943 c -4.27703,0 -11.02643,-1.28958 -15.01813,0.2571 -6.55072,2.53813 -13.30575,13.18045 -18.15941,18.20269 -14.70118,15.2118 -29.14581,30.72271 -44.10324,45.68014 l 20.64992,-64.13993 h -69.14597 m 48.49605,64.13993 -0.31288,0.31288 z"
    transform="matrix(1.0876825,0,0,1.0876825,-22.446296,0)"
  />
  <path
    class="path"
    d="m 48.080518,85.574289 4e-6,77.478481 c -6e-6,4.9657 -1.737007,8.96729 -3.877252,8.96729 l -1.036494,-1e-5 c -2.140236,1e-5 -3.882151,-4.00158 -3.882161,-8.96728 l 8e-6,-77.833181 c -1e-6,-12.768965 -3.718784,-16.581914 -7.284305,-16.581904 -3.56554,0 -7.284317,3.812939 -7.28432,16.581919 l -2e-6,77.833166 c 2e-6,4.96568 -1.741925,8.96729 -3.882166,8.96729 l -1.036483,-1e-5 c -2.140247,0 -3.877254,-4.00158 -3.877256,-8.96728 l 8e-6,-77.478496 C 15.92009,62.718561 1.8121338,63.49464 1.8121338,85.828949 c 4.9e-6,26.746001 1.8e-6,73.986891 1.8e-6,73.986891 -0.067265,41.07774 4.1843544,51.75185 11.1999474,64.55421 5.657553,10.30805 10.489603,16.21577 10.489603,41.82039 l -1.2e-5,164.71103 16.99663,-1e-5 1e-5,-164.71101 c 2e-6,-25.60463 4.832048,-31.51235 10.489595,-41.8204 7.020207,-12.80235 11.267217,-23.47646 11.199954,-64.55421 0,0 10e-7,-47.24088 -5e-6,-73.986882 4e-4,-22.334318 -14.107339,-23.110397 -14.10734,-0.254669 z"
  />
  <path
    class="path"
    d="m 474.2718,90.994863 c -5.9863,24.282307 -23.2207,81.171427 -24.31149,131.417587 -1.68789,77.994 31.35648,66.45745 31.94544,117.55472 v 102.19599 l 28.06069,10e-6 0.13554,0.50697 c 0,0 -6e-5,-0.20704 0,-0.50698 0,-6.82788 0,-88.14889 10e-6,-171.10504 -10e-6,-82.05788 -10e-6,-165.64773 -10e-6,-180.062523 0,-29.614351 -26.50886,-37.788528 -35.83018,-7.34e-4 z"
  />
  <style type="text/css">
    .marker {
      display: inline;
      fill: #df3b39;
      stroke: none;
    }
    .path {
      display: inline;
      opacity: 1;
      fill: #ffffff;
      fill-opacity: 1;
      stroke: #000000;
      stroke-width: 3;
      stroke-dasharray: none;
      stroke-opacity: 1;
    }
    @media (prefers-color-scheme: dark) {
      .path {
        fill: #000000;
        stroke: #ffffff;
      }
    }
  </style>
</svg>
